<svg xmlns="http://www.w3.org/2000/svg" viewBox="0 0 696.02 352.5"><defs><style>.cls-1{fill:#898989;}.cls-2{fill:#5b5b5b;}.cls-3{fill:#ccc;}.cls-4{fill:#d14141;}.cls-5{fill:#fff;}.cls-6{font-size:71.14px;}.cls-6,.cls-7{font-family:Oswald-Regular, Oswald;}.cls-7{font-size:40.59px;}</style></defs><title>person</title><g id="Layer_2" data-name="Layer 2"><g id="Layer_2-2" data-name="Layer 2"><path class="cls-1" d="M98.17,195.4c-17.15-7.48-35.71-8.66-53.35-1.71-19.61,7.73-33.49,21.63-40.66,41.6-6.09,17-4.45,36-1.66,53.42,2.92,18.28,9.79,36,18.66,52.15,6,11,22.15,15.5,32.84,8.61,11.17-7.2,15.07-21,8.61-32.84-1.76-3.22-3.45-6.47-5-9.8-.55-1.2-3.48-5.86-.46-.92a28.35,28.35,0,0,1-1.93-5A138.51,138.51,0,0,1,49.9,282c-.36-1.73-.64-3.47-1-5.2-1.14-5.92.49,5.4-.12-.59-.34-3.4-.64-6.8-.75-10.22-.09-2.73-.06-5.47.11-8.2.05-.86.45-6.36.1-2s.28-1,.5-2c.28-1.22.6-2.43,1-3.62q.44-1.44,1-2.85l-1.26,2.94c.83-1,1.44-2.92,2.12-4.07q.59-1,1.25-2,1.5-2.19-1.4,1.67c0-.86,2.5-2.81,3.06-3.34l.94-.88q2.82-2.39-1.78,1.26c2.16-.77,4.38-2.87,6.47-3.92,4-2,0,.67-1.18.41.88.2,3.1-1.09,4.11-1.38,1.4-.41,2.83-.67,4.23-1,4.89-1.31-5.67.3-.62,0,2.64-.14,6.11.6,8.62.11-1.63.32-5.55-1-1.51,0,1.73.43,6.87,2.56.21-.35,6.14,2.68,11.76,4.27,18.49,2.42,5.57-1.53,11.6-5.84,14.34-11,5.48-10.38,3.68-27.48-8.61-32.84Z" transform="translate(0 -0.25)"/><path class="cls-1" d="M420.55,347.79c33.7-2.55,66.36-29.09,72.38-63.21,6.44-36.46-13.11-69.69-36.62-96-11.95-13.35-26.12-24.8-41.11-34.57-10.54-6.87-27-2.47-32.84,8.61-6.32,12-2.64,25.51,8.61,32.84,3.32,2.16,8.45,4.56,11,7.64l-2.23-1.74q1.3,1,2.58,2.06,2.55,2.07,5,4.24a173,173,0,0,1,16.11,16.07q2.13,2.42,4.16,4.92,1,1.25,2,2.52l-1.8-2.31c1.32.66,2.9,4,3.74,5.2q1.82,2.63,3.53,5.33c2,3.23,4,6.53,5.76,9.92.78,1.49,1.47,3,2.23,4.52q1.61,3.61-.43-1.09.62,1.57,1.17,3.16c.8,2.32,3.7,9,2.89,11.43q-.68-5.38-.29-1.32.11,1.71.12,3.42c0,.65-.55,4.74-.25,5.21q.77-5.18.06-1.09-.37,1.8-.86,3.57c-.25.87-2.41,6.17-.59,2.23s-.84,1.49-1.22,2.19c-.94,1.7-2,3.28-3.06,4.93-2.69,4.31,3.6-3.93.14-.14-1.36,1.49-2.66,3-4.11,4.43-1.27,1.25-2.64,2.37-4,3.57s-.76.67,1.86-1.4q-1.23.9-2.5,1.74a56.63,56.63,0,0,1-5.22,3.07q-1,.52-2,1-2.49,1.15,2.29-1c-.61-.31-4.81,1.55-5.66,1.75s-1.91.42-2.88.59q5.95-.71,2-.37c-12.49.95-24.61,10.36-24,24,.55,12.19,10.59,25,24,24Z" transform="translate(0 -0.25)"/><path class="cls-2" d="M152.92,36.5H351.11A73.91,73.91,0,0,1,425,110.41V242.5a0,0,0,0,1,0,0H79a0,0,0,0,1,0,0V110.41A73.91,73.91,0,0,1,152.92,36.5Z"/><ellipse class="cls-3" cx="174.51" cy="126.5" rx="30.5" ry="21"/><ellipse class="cls-3" cx="282.51" cy="126.5" rx="30.5" ry="21"/><ellipse class="cls-1" cx="214.51" cy="192.25" rx="51.5" ry="24.25"/><path class="cls-4" d="M266.21,192.5a13.36,13.36,0,0,1-.6,3.85,16.33,16.33,0,0,1-1.69,3.51,24,24,0,0,1-5.34,5.61,51,51,0,0,1-13.62,7.3,97.93,97.93,0,0,1-30.45,5.89,110.36,110.36,0,0,1-15.68-.48,81.45,81.45,0,0,1-15.57-3.09,62.43,62.43,0,0,1-7.55-2.92,39.88,39.88,0,0,1-7.18-4.21,27.08,27.08,0,0,1-6.16-6.3,19.56,19.56,0,0,1-2.13-4.26,16.37,16.37,0,0,1-.83-4.9,16.7,16.7,0,0,1,.84-4.9,19.56,19.56,0,0,1,2.13-4.26,27.08,27.08,0,0,1,6.16-6.3,50.73,50.73,0,0,1,14.73-7.12,95.85,95.85,0,0,1,31.24-3.56A98.07,98.07,0,0,1,245,172.24a51.06,51.06,0,0,1,13.62,7.3,24,24,0,0,1,5.34,5.61,16.33,16.33,0,0,1,1.69,3.51A13.36,13.36,0,0,1,266.21,192.5Zm-.4,0a13,13,0,0,0-.62-3.71,15.87,15.87,0,0,0-1.67-3.38,23.47,23.47,0,0,0-5.28-5.43,48.71,48.71,0,0,0-13.58-6.87,100.86,100.86,0,0,0-60.27.09,48.59,48.59,0,0,0-13.52,6.89,23.31,23.31,0,0,0-5.22,5.41,15.69,15.69,0,0,0-1.64,3.35,11.43,11.43,0,0,0,0,7.3,15.7,15.7,0,0,0,1.64,3.35,23.31,23.31,0,0,0,5.22,5.41,48.59,48.59,0,0,0,13.52,6.89,100.86,100.86,0,0,0,60.27.09A48.71,48.71,0,0,0,258.24,205a23.47,23.47,0,0,0,5.28-5.43,15.87,15.87,0,0,0,1.67-3.38A12.94,12.94,0,0,0,265.81,192.5Z" transform="translate(0 -0.25)"/><path class="cls-5" d="M537.16.25C624.89.25,696,40.77,696,90.75s-71.12,90.5-158.86,90.5c-41.82,0-79.85-9.2-108.22-24.26h0L380.7,106.5a53.15,53.15,0,0,1-2.4-15.75C378.3,40.77,449.42.25,537.16.25Z" transform="translate(0 -0.25)"/><polygon class="cls-5" points="380.7 106.25 428.93 156.74 337.39 177.82 380.7 106.25"/><text class="cls-6" transform="translate(452.5 144.08)">MIYT !!!</text><text class="cls-7" transform="translate(506.95 61.85)">USE</text></g></g></svg>