<svg xmlns="http://www.w3.org/2000/svg" viewBox="0 0 1920.5 1392.33"><defs><style>.cls-1{fill:gray;}.cls-2{fill:#ccc;}</style></defs><title>wave background</title><g id="Layer_2" data-name="Layer 2"><g id="Layer_7" data-name="Layer 7"><path class="cls-1" d="M1156.34,184a1769.19,1769.19,0,0,1-183.06-54.8C818.58,73.67,731.07,18.86,598.34,3.81c-114.49-13-276.1,2.11-485.72,125.41C76.51,150.47,39,174.93,0,203v23.53"/><path class="cls-1" d="M973.28,129.23A1769.19,1769.19,0,0,0,1156.34,184q14.37,3.49,29.4,6.91c220.8,50.13,339.27,50.38,375.71,49.77,143.84-2.45,266-30.08,358.55-59.88V979.26H0V203c39-28.08,76.51-52.53,112.62-73.78"/><path class="cls-2" d="M197.65,597.1A1739.45,1739.45,0,0,0,378.9,542.3C532.06,486.74,618.7,431.94,750.1,416.89c113.35-13,273.36,2.11,480.9,125.41,35.75,21.24,72.92,45.7,111.5,73.78v23.53Z"/><path class="cls-2" d="M1342.5,616.08v776.26H.5V636.69c47.48-7.37,103.32-17.84,168-32.68q14.89-3.42,29.11-6.91A1739.43,1739.43,0,0,0,378.9,542.3H1231C1266.75,563.54,1303.92,588,1342.5,616.08Z"/><path class="cls-2" d="M848.48,613.54a1575.24,1575.24,0,0,0,169.71-53.67c143.42-54.41,224.55-108.08,347.6-122.82,106.14-12.71,256,2.07,450.3,122.82,33.48,20.8,68.28,44.75,104.41,72.25v23"/><path class="cls-2" d="M1018.19,559.87a1575.24,1575.24,0,0,1-169.71,53.67q-13.32,3.42-27.26,6.76C616.52,669.39,506.69,669.65,472.91,669c-133.35-2.4-246.57-29.46-332.41-58.64v781.93h1780V632.12c-36.13-27.5-70.93-51.45-104.41-72.25"/></g></g></svg>